# xmcd CD database file
#
# Track frame offsets:
#	150
#	49737
#	81741
#	118870
#	156864
#	175425
#	198314
#	216059
#	244337
#	260270
#	272625
#	288137
#	304731
#	321875
#
# Disc length: 4611 seconds
#
# Revision: 0
# Processed by: cddbd v1.5.2PL0 Copyright (c) Steve Scherf et al.
# Submitted via: CDex 1.51
#
DISCID=d112010e
DTITLE=Cannonball Adderley - Somethin' Else
DYEAR=1958
DGENRE=Jazz
TTITLE0=Autumn Leaves
TTITLE1=Love For Sale
TTITLE2=Somethin' Else
TTITLE3=One For Daddy
TTITLE4=Dancing In The Dark
TTITLE5=Allison's Uncle
TTITLE6=Spectacular
TTITLE7=Miss Jackie's Delight
TTITLE8=Tribute To Brownie
TTITLE9=Cobbweb
TTITLE10=Jeannie
TTITLE11=Another Kind Of Soul
TTITLE12=Spring Is Here
TTITLE13=Eddie McLin
EXTD=YEAR: 1958
EXTT0=
EXTT1=
EXTT2=
EXTT3=
EXTT4=
EXTT5=
EXTT6=
EXTT7=
EXTT8=
EXTT9=
EXTT10=
EXTT11=
EXTT12=
EXTT13=
PLAYORDER=
